<svg width="48" height="32" viewBox="0 0 48 32" xmlns="http://www.w3.org/2000/svg"><g fill="none" fill-rule="evenodd"><rect fill="#252525" width="48" height="32" rx="4"/><path d="M27.991 11.714h-8.02v11.29h8.02v-11.29z" fill="#FF5F00"/><path d="M20.571 17.36a7.123 7.123 0 0 1 2.715-5.646 7.168 7.168 0 0 0-4.414-1.517c-3.96 0-7.17 3.2-7.17 7.163 0 3.96 3.21 7.163 7.17 7.163a7.168 7.168 0 0 0 4.414-1.517 7.127 7.127 0 0 1-2.715-5.646z" fill="#EB001B"/><path d="M35.21 17.36c0 3.96-3.21 7.163-7.169 7.163a7.168 7.168 0 0 1-4.414-1.517 7.114 7.114 0 0 0 2.714-5.646c0-2.153-.851-4.255-2.714-5.646a7.168 7.168 0 0 1 4.414-1.517c3.96 0 7.17 3.202 7.17 7.163z" fill="#F79E1B"/></g></svg>
