<svg width="101" height="32" viewBox="0 0 101 32" xmlns="http://www.w3.org/2000/svg" preserveAspectRatio="xMinYMin meet"><path fill="#003087" d="M 12.237 2.8 L 4.437 2.8 C 1.937 2.8 0.037 4.7 0.037 7.2 L 0.037 24.8 C 0.037 27.3 1.937 29.2 4.437 29.2 L 12.237 29.2 C 14.737 29.2 16.637 27.3 16.637 24.8 L 16.637 7.2 C 16.637 4.7 14.737 2.8 12.237 2.8 Z M 47.137 2.8 L 39.937 2.8 C 37.437 2.8 35.537 4.7 35.537 7.2 L 35.537 24.8 C 35.537 27.3 37.437 29.2 39.937 29.2 L 47.137 29.2 C 49.637 29.2 51.537 27.3 51.537 24.8 L 51.537 7.2 C 51.537 4.7 49.637 2.8 47.137 2.8 Z M 23.037 10.7 C 23.037 9.1 21.737 7.8 20.137 7.8 L 11.937 7.8 C 10.337 7.8 9.037 9.1 9.037 10.7 L 9.037 21.3 C 9.037 22.9 10.337 24.2 11.937 24.2 L 20.137 24.2 C 21.737 24.2 23.037 22.9 23.037 21.3 L 23.037 10.7 Z M 74.637 10.7 C 74.637 9.1 73.337 7.8 71.737 7.8 L 63.537 7.8 C 61.937 7.8 60.637 9.1 60.637 10.7 L 60.637 21.3 C 60.637 22.9 61.937 24.2 63.537 24.2 L 71.737 24.2 C 73.337 24.2 74.637 22.9 74.637 21.3 L 74.637 10.7 Z M 86.437 0.9 L 78.637 0.9 C 76.137 0.9 74.237 2.8 74.237 5.3 L 74.237 26.7 C 74.237 29.2 76.137 31.1 78.637 31.1 L 86.437 31.1 C 88.937 31.1 90.837 29.2 90.837 26.7 L 90.837 5.3 C 90.837 2.8 88.937 0.9 86.437 0.9 Z M 98.837 2.8 L 91.637 2.8 C 89.137 2.8 87.237 4.7 87.237 7.2 L 87.237 24.8 C 87.237 27.3 89.137 29.2 91.637 29.2 L 98.837 29.2 C 101.337 29.2 103.237 27.3 103.237 24.8 L 103.237 7.2 C 103.237 4.7 101.337 2.8 98.837 2.8 Z" transform="translate(-3 0)"/><path fill="#009cde" d="M 45.837 7.1 C 46.437 7.1 46.937 7.2 47.337 7.4 C 47.737 7.6 48.037 7.8 48.337 8.1 C 48.637 8.4 48.837 8.8 48.937 9.2 C 49.037 9.6 49.137 10.1 49.137 10.6 C 49.137 11.2 49.037 11.7 48.837 12.2 C 48.637 12.7 48.437 13.1 48.037 13.4 C 47.637 13.7 47.237 14 46.737 14.2 C 46.237 14.4 45.637 14.5 44.937 14.5 L 42.337 14.5 L 42.337 7.1 L 45.837 7.1 Z M 45.537 13.2 C 45.937 13.2 46.337 13.1 46.637 13 C 46.937 12.9 47.237 12.7 47.437 12.5 C 47.637 12.3 47.837 12 47.937 11.7 C 48.037 11.4 48.137 11 48.137 10.6 C 48.137 10.3 48.037 9.9 47.937 9.6 C 47.837 9.3 47.637 9.1 47.437 8.8 C 47.237 8.6 46.937 8.4 46.637 8.3 C 46.337 8.1 45.937 8.1 45.537 8.1 L 43.437 8.1 L 43.437 13.1 L 45.537 13.1 L 45.537 13.2 Z M 53.837 10.3 C 54.137 10.3 54.337 10.4 54.537 10.5 C 54.737 10.6 54.937 10.7 55.037 10.9 C 55.137 11.1 55.237 11.3 55.337 11.5 C 55.337 11.7 55.437 12 55.437 12.2 C 55.437 12.4 55.437 12.6 55.337 12.9 C 55.237 13.1 55.137 13.3 55.037 13.5 C 54.837 13.7 54.637 13.8 54.537 13.9 C 54.337 14 54.037 14.1 53.837 14.1 L 53.637 14.1 L 53.637 15.9 L 52.537 15.9 L 52.537 10.4 L 53.137 10.4 L 53.337 10.7 C 53.437 10.6 53.537 10.5 53.737 10.4 C 53.737 10.3 53.837 10.3 53.837 10.3 Z M 53.737 13.1 C 53.837 13.1 53.937 13.1 54.037 13 C 54.137 12.9 54.237 12.9 54.337 12.8 C 54.437 12.7 54.437 12.6 54.537 12.4 C 54.537 12.2 54.637 12.1 54.637 11.9 C 54.637 11.7 54.637 11.6 54.537 11.4 C 54.537 11.2 54.437 11.1 54.337 11 C 54.237 10.9 54.137 10.8 54.037 10.8 C 53.937 10.7 53.837 10.7 53.737 10.7 C 53.637 10.7 53.537 10.7 53.437 10.7 C 53.337 10.7 53.237 10.8 53.137 10.8 L 53.137 13 C 53.237 13 53.337 13.1 53.437 13.1 C 53.537 13.1 53.637 13.1 53.737 13.1 Z M 57.937 12.5 L 57.037 12.5 C 57.037 12.3 57.037 12.1 57.137 11.9 C 57.137 11.7 57.237 11.5 57.337 11.3 C 57.437 11.1 57.637 11 57.837 10.9 C 58.037 10.8 58.237 10.7 58.537 10.7 C 58.737 10.7 58.937 10.7 59.137 10.8 C 59.337 10.9 59.437 11 59.537 11.1 C 59.637 11.3 59.737 11.4 59.837 11.6 C 59.837 11.8 59.937 12 59.937 12.3 L 59.937 14.4 L 58.837 14.4 L 58.837 12.4 C 58.837 12.2 58.837 12 58.737 11.9 C 58.637 11.8 58.537 11.7 58.337 11.7 C 58.137 11.7 58.037 11.8 57.937 11.9 C 57.837 12 57.837 12.2 57.837 12.5 L 57.837 14.5 L 56.737 14.5 L 56.737 10.3 L 57.337 10.3 L 57.537 10.7 C 57.637 10.6 57.737 10.5 57.937 10.4 C 58.137 10.3 58.237 10.3 58.437 10.3 C 58.637 10.3 58.837 10.3 59.037 10.4 C 59.237 10.5 59.337 10.6 59.537 10.7 L 59.337 11.1 C 59.237 11 59.137 10.9 58.937 10.8 C 58.837 10.7 58.637 10.7 58.437 10.7 C 58.337 10.7 58.237 10.7 58.137 10.7 C 58.037 10.7 57.937 10.8 57.837 10.8 C 57.737 10.9 57.637 10.9 57.637 11.1 C 57.537 11.2 57.537 11.4 57.537 11.6 L 58.937 11.6 L 58.937 12.4 L 57.937 12.4 L 57.937 12.5 Z M 61.237 14.4 L 60.137 14.4 L 60.137 10.3 L 61.237 10.3 L 61.237 14.4 Z M 60.037 9.3 C 60.037 9.1 60.137 8.9 60.237 8.8 C 60.337 8.7 60.537 8.6 60.737 8.6 C 60.937 8.6 61.137 8.7 61.237 8.8 C 61.337 8.9 61.437 9.1 61.437 9.3 C 61.437 9.5 61.337 9.7 61.237 9.8 C 61.137 9.9 60.937 10 60.737 10 C 60.537 10 60.337 9.9 60.237 9.8 C 60.137 9.7 60.037 9.5 60.037 9.3 Z M 64.837 12.5 L 63.937 12.5 C 63.937 12.3 63.937 12.1 64.037 11.9 C 64.037 11.7 64.137 11.5 64.237 11.3 C 64.337 11.1 64.537 11 64.737 10.9 C 64.937 10.8 65.137 10.7 65.437 10.7 C 65.637 10.7 65.837 10.7 66.037 10.8 C 66.237 10.9 66.337 11 66.437 11.1 C 66.537 11.3 66.637 11.4 66.737 11.6 C 66.737 11.8 66.837 12 66.837 12.3 L 66.837 14.4 L 65.737 14.4 L 65.737 12.4 C 65.737 12.2 65.737 12 65.637 11.9 C 65.537 11.8 65.437 11.7 65.237 11.7 C 65.037 11.7 64.937 11.8 64.837 11.9 C 64.737 12 64.737 12.2 64.737 12.5 L 64.737 14.5 L 63.637 14.5 L 63.637 10.3 L 64.237 10.3 L 64.437 10.7 C 64.537 10.6 64.637 10.5 64.837 10.4 C 65.037 10.3 65.137 10.3 65.337 10.3 C 65.537 10.3 65.737 10.3 65.937 10.4 C 66.137 10.5 66.237 10.6 66.437 10.7 L 66.237 11.1 C 66.137 11 66.037 10.9 65.837 10.8 C 65.737 10.7 65.537 10.7 65.337 10.7 C 65.237 10.7 65.137 10.7 65.037 10.7 C 64.937 10.7 64.837 10.8 64.737 10.8 C 64.637 10.9 64.537 10.9 64.537 11.1 C 64.437 11.2 64.437 11.4 64.437 11.6 L 65.837 11.6 L 65.837 12.4 L 64.837 12.4 L 64.837 12.5 Z" transform="translate(0 0)"/></svg>
