<svg width="48" height="32" viewBox="0 0 48 32" xmlns="http://www.w3.org/2000/svg"><g fill="none" fill-rule="evenodd"><rect fill="#F3F4F5" width="48" height="32" rx="4"/><path d="M19.464 19.066L21.12 12.5h2.695l-1.657 6.566h-2.694zm-4.888-4.076l-.3 1.71.7-.017c.95-.132 1.717-.566 1.717-1.324 0-.466-.335-.633-.817-.633-.9 0-1.6.264-1.3.264zm2.07-2.49h-1.8c-.25 0-.483.164-.566.399l-1.617 6.167h2.682c.25 0 .483-.165.566-.4l.316-1.208h2.032c.25 0 .484-.165.567-.4l.967-3.69h.532l.7-1.68h-.532l.067-.2c.05-.15.2-.433-.1-.667-.265-.216-.665-.299-1.113-.299h-2.4v-.016l-.002-.006zm-7.334 0h-2.765c-.25 0-.484.165-.567.399l-1.617 6.167H6.43c.25 0 .483-.165.566-.4l.367-1.39h2.015c.15.666.816.85 1.499.85.75 0 1.482-.2 1.982-.55.532-.365.8-.932.8-1.548 0-.949-.699-1.465-1.615-1.665.517-.2.883-.55 1.033-1.064.166-.5.116-.8-.15-1.066-.299-.3-.716-.733-2.131-.733zm7.718 6.582h-2.615c-.25 0-.484-.165-.567-.399-.1-.233 0-.483.199-.649.55-.449 1.532-.782 2.482-.782.967 0 1.8.283 1.8 1.048 0 .466-.533.782-1.299.782zm19.387-6.532l.1.733h-1.9l-.1-.733c-.25-.25-.383-.416-.832-.416h-2.848c-.25 0-.483.165-.567.399l-1.617 6.167h2.683c.25 0 .482-.165.566-.4l.316-1.208h2.032c.25 0 .483-.165.567-.4l.966-3.69h.599c.5 0 .466.366.35.865l-.816 3.225h2.682c.25 0 .483-.165.566-.4l.867-3.325c.2-1.048-.266-1.964-1.365-1.964-.583 0-1.15.148-1.249.148zm7.717 0h-2.8c-.25 0-.483.165-.566.399l-1.617 6.167h2.673c.25 0 .483-.149.565-.366.084-.199.084-.45.084-.716.65.2 1.432.616 2.332.616 1.432 0 2.498-.95 2.931-2.314.834-2.598-1.814-3.786-3.602-3.786zm-1.1 4.35c-.617 0-1.117-.233-1.117-.833 0-.667.35-1 1.217-1 .867 0 1.333.45 1.333 1.05 0 .45-.85.784-1.433.784z" fill="#1A1F71"/></g></svg>
